<mxfile host="app.diagrams.net" modified="2024-01-16T06:43:31.397Z" agent="Mozilla/5.0 (Windows NT 10.0; Win64; x64) AppleWebKit/537.36 (KHTML, like Gecko) Chrome/120.0.0.0 Safari/537.36" etag="pnB99YYN_JW_lOcgn886" version="22.1.18" type="github" pages="2">
  <diagram name="UCUBE_이관요청화면" id="19zw-4TkVI1WCkjkTPqd">
    <mxGraphModel dx="1087" dy="3071" grid="1" gridSize="10" guides="1" tooltips="1" connect="1" arrows="1" fold="1" page="1" pageScale="1" pageWidth="827" pageHeight="1169" math="0" shadow="0">
      <root>
        <mxCell id="0" />
        <mxCell id="1" parent="0" />
        <mxCell id="SNBEBSxsxXZLALjFwHjv-3" style="edgeStyle=orthogonalEdgeStyle;rounded=0;orthogonalLoop=1;jettySize=auto;html=1;entryX=0;entryY=0.5;entryDx=0;entryDy=0;flowAnimation=1;" edge="1" parent="1" source="SNBEBSxsxXZLALjFwHjv-1" target="SNBEBSxsxXZLALjFwHjv-2">
          <mxGeometry relative="1" as="geometry" />
        </mxCell>
        <mxCell id="SNBEBSxsxXZLALjFwHjv-1" value="운영자" style="shape=umlActor;verticalLabelPosition=bottom;verticalAlign=top;html=1;outlineConnect=0;" vertex="1" parent="1">
          <mxGeometry x="20" y="-2200" width="30" height="51" as="geometry" />
        </mxCell>
        <mxCell id="SNBEBSxsxXZLALjFwHjv-7" style="edgeStyle=orthogonalEdgeStyle;rounded=0;orthogonalLoop=1;jettySize=auto;html=1;entryX=0;entryY=0.5;entryDx=0;entryDy=0;" edge="1" parent="1" source="SNBEBSxsxXZLALjFwHjv-2" target="SNBEBSxsxXZLALjFwHjv-16">
          <mxGeometry relative="1" as="geometry">
            <mxPoint x="370" y="-2090" as="targetPoint" />
          </mxGeometry>
        </mxCell>
        <mxCell id="SNBEBSxsxXZLALjFwHjv-2" value="화면" style="rounded=1;whiteSpace=wrap;html=1;" vertex="1" parent="1">
          <mxGeometry x="210" y="-2190" width="90" height="31" as="geometry" />
        </mxCell>
        <mxCell id="SNBEBSxsxXZLALjFwHjv-5" value="1. SANFBOX정보를 아데나로 이관 요청" style="text;html=1;strokeColor=none;fillColor=none;align=center;verticalAlign=middle;whiteSpace=wrap;rounded=0;" vertex="1" parent="1">
          <mxGeometry x="70" y="-2210" width="130" height="21" as="geometry" />
        </mxCell>
        <mxCell id="SNBEBSxsxXZLALjFwHjv-8" value="S3" style="swimlane;whiteSpace=wrap;html=1;" vertex="1" collapsed="1" parent="1">
          <mxGeometry x="790" y="-2190" width="60" height="30" as="geometry">
            <mxRectangle x="810" y="30" width="320" height="590" as="alternateBounds" />
          </mxGeometry>
        </mxCell>
        <mxCell id="SNBEBSxsxXZLALjFwHjv-13" value="&lt;h1&gt;&lt;font style=&quot;font-size: 16px;&quot;&gt;S3 DAS 이관요청 RestAPI&lt;/font&gt;&lt;/h1&gt;&lt;p&gt;- 통합 고객 TDA_PERSON_VIEW&lt;br&gt;- 통합 고객 TCA_WEB_MEMBER_VIEW&lt;br&gt;- 통합 고객&amp;nbsp;&lt;span style=&quot;text-indent: -0.2in; background-color: initial; font-size: 9pt; text-indent: -0.2in; font-size: 9pt;&quot;&gt;&lt;/span&gt;&lt;span style=&quot;text-indent: -0.2in; background-color: initial; font-size: 9pt; font-family: &amp;quot;맑은 고딕&amp;quot;;&quot;&gt;TDA_ONEID_MSTR&lt;/span&gt;_VIEW&lt;br&gt;- 통합 고객&amp;nbsp;&lt;span style=&quot;font-family: &amp;quot;맑은 고딕&amp;quot;; text-indent: -19.2px;&quot;&gt;TDA_ONEID_PRVS_AGRMT_VIEW&lt;br&gt;&lt;/span&gt;- 통합 고객&amp;nbsp;&lt;span style=&quot;font-family: &amp;quot;맑은 고딕&amp;quot;; text-indent: -19.2px;&quot;&gt;TDA_ONEID_PRVS_ATTR_AGRMT_VIEW&lt;br&gt;&lt;/span&gt;- 통합 고객&amp;nbsp;&lt;span style=&quot;font-family: &amp;quot;맑은 고딕&amp;quot;; text-indent: -19.2px;&quot;&gt;TDA_FIVEO_PROD_PRVS_VIEW&lt;br&gt;&lt;/span&gt;- 통합 고객&amp;nbsp;&lt;span style=&quot;font-family: &amp;quot;맑은 고딕&amp;quot;; text-indent: -19.2px;&quot;&gt;TDA_FIVEO_PROD_PRVS_ATTR_VIEW&lt;br&gt;&lt;/span&gt;- 통합 고객&amp;nbsp;TDA_FIVEO_ENTR_SITE_DV_VIEW&lt;span style=&quot;background-color: initial;&quot;&gt;&lt;br&gt;&lt;/span&gt;&lt;span style=&quot;background-color: initial;&quot;&gt;- 홈 가입 TCA_ENTR_VIEW&lt;br&gt;&lt;/span&gt;&lt;span style=&quot;background-color: initial;&quot;&gt;- 홈 가입 TCA_SVC_BY_ENTR_VIEW&lt;br&gt;&lt;/span&gt;&lt;span style=&quot;background-color: initial;&quot;&gt;- 홈 가입 TDA_DEV_BY_ENTR_VIEW&lt;br&gt;&lt;/span&gt;&lt;span style=&quot;background-color: initial;&quot;&gt;- 기업 가입 TCA_ENTR_VIEW&lt;br&gt;&lt;/span&gt;&lt;span style=&quot;background-color: initial;&quot;&gt;- 기업&amp;nbsp;가입 TCA_SVC_BY_ENTR_VIEW&lt;br&gt;&lt;/span&gt;&lt;span style=&quot;background-color: initial;&quot;&gt;- 기업 가입 TDA_DEV_BY_ENTR_VIEW&lt;br&gt;&lt;/span&gt;&lt;span style=&quot;background-color: initial;&quot;&gt;- 원아이디 TDA_ENTR_VUEW&lt;br&gt;&lt;/span&gt;&lt;span style=&quot;background-color: initial;&quot;&gt;- 원아이디 TDA_SVC_BY_ENTR_NEW&lt;/span&gt;&lt;/p&gt;" style="text;html=1;strokeColor=none;fillColor=none;spacing=5;spacingTop=-20;whiteSpace=wrap;overflow=hidden;rounded=0;fontStyle=0" vertex="1" parent="SNBEBSxsxXZLALjFwHjv-8">
          <mxGeometry x="10" y="280" width="290" height="290" as="geometry" />
        </mxCell>
        <mxCell id="SNBEBSxsxXZLALjFwHjv-12" value="&lt;h1&gt;&lt;font style=&quot;font-size: 16px;&quot;&gt;S3 CAS 이관요청 RestAPI&lt;/font&gt;&lt;/h1&gt;&lt;p&gt;- 통합 고객 TCA_PERSON_VIEW&lt;br&gt;- 통합 고객 TCA_WEB_MEMBER_VIEW&lt;br&gt;- 모바일 가입 TCA_CUST_MASTER_VIEW&lt;br&gt;- 모바일 가입 TCA_SUB_SVC_VIEW&lt;br&gt;- 모바일 가입 TCA_ONE_NUMBER_VIEW&lt;br&gt;- 모바일 가입 TCA_RIO_WATCH_LIST_VIEW&lt;br style=&quot;border-color: var(--border-color);&quot;&gt;- 홈 가입 TCA_CUST_MASTER_VIEW&lt;br style=&quot;border-color: var(--border-color);&quot;&gt;- 홈 가입 TCA_SUB_SVC_VIEW&lt;br style=&quot;border-color: var(--border-color);&quot;&gt;- 홈 가입 TCA_DV_DEV_BY_ENTR_VIEW&amp;nbsp;&lt;br&gt;- 기업 가입 TCA_CUST_MASTER_VIEW&lt;br style=&quot;border-color: var(--border-color);&quot;&gt;- 기업&amp;nbsp;가입 TCA_SUB_SVC_VIEW&lt;br style=&quot;border-color: var(--border-color);&quot;&gt;- 기업 가입 TCA_DV_DEV_BY_ENTR_VIEW&lt;br&gt;- 원아이디 TCA_CUST_MASTER_VIEW&lt;br&gt;- 원아이디 TCA_SUB_SVC_VUEW&amp;nbsp;&lt;/p&gt;" style="text;html=1;strokeColor=none;fillColor=none;spacing=5;spacingTop=-20;whiteSpace=wrap;overflow=hidden;rounded=0;" vertex="1" parent="SNBEBSxsxXZLALjFwHjv-8">
          <mxGeometry x="10" y="20" width="270" height="260" as="geometry" />
        </mxCell>
        <mxCell id="SNBEBSxsxXZLALjFwHjv-28" style="edgeStyle=orthogonalEdgeStyle;rounded=0;orthogonalLoop=1;jettySize=auto;html=1;entryX=0;entryY=0.5;entryDx=0;entryDy=0;" edge="1" parent="1" source="SNBEBSxsxXZLALjFwHjv-16" target="SNBEBSxsxXZLALjFwHjv-8">
          <mxGeometry relative="1" as="geometry" />
        </mxCell>
        <mxCell id="SNBEBSxsxXZLALjFwHjv-16" value="대사 서버 UCUBE 이관 요청" style="swimlane;whiteSpace=wrap;html=1;" vertex="1" collapsed="1" parent="1">
          <mxGeometry x="430" y="-2190" width="190" height="30" as="geometry">
            <mxRectangle x="450" y="30" width="330" height="590" as="alternateBounds" />
          </mxGeometry>
        </mxCell>
        <mxCell id="SNBEBSxsxXZLALjFwHjv-14" value="&lt;h1&gt;&lt;font style=&quot;font-size: 16px;&quot;&gt;S3 CAS 이관요청 RestAPI&lt;/font&gt;&lt;/h1&gt;&lt;p&gt;- 통합 고객 TCA_PERSON_VIEW&lt;br&gt;- 통합 고객 TCA_WEB_MEMBER_VIEW&lt;br&gt;- 모바일 가입 TCA_CUST_MASTER_VIEW&lt;br&gt;- 모바일 가입 TCA_SUB_SVC_VIEW&lt;br&gt;- 모바일 가입 TCA_ONE_NUMBER_VIEW&lt;br&gt;- 모바일 가입 TCA_RIO_WATCH_LIST_VIEW&lt;br style=&quot;border-color: var(--border-color);&quot;&gt;- 홈 가입 TCA_CUST_MASTER_VIEW&lt;br style=&quot;border-color: var(--border-color);&quot;&gt;- 홈 가입 TCA_SUB_SVC_VIEW&lt;br style=&quot;border-color: var(--border-color);&quot;&gt;- 홈 가입 TCA_DV_DEV_BY_ENTR_VIEW&amp;nbsp;&lt;br&gt;- 기업 가입 TCA_CUST_MASTER_VIEW&lt;br style=&quot;border-color: var(--border-color);&quot;&gt;- 기업&amp;nbsp;가입 TCA_SUB_SVC_VIEW&lt;br style=&quot;border-color: var(--border-color);&quot;&gt;- 기업 가입 TCA_DV_DEV_BY_ENTR_VIEW&lt;br&gt;- 원아이디 TCA_CUST_MASTER_VIEW&lt;br&gt;- 원아이디 TCA_SUB_SVC_VUEW&amp;nbsp;&lt;/p&gt;" style="text;html=1;strokeColor=none;fillColor=none;spacing=5;spacingTop=-20;whiteSpace=wrap;overflow=hidden;rounded=0;" vertex="1" parent="SNBEBSxsxXZLALjFwHjv-16">
          <mxGeometry x="20" y="30" width="270" height="500" as="geometry" />
        </mxCell>
        <mxCell id="SNBEBSxsxXZLALjFwHjv-18" value="&lt;h1&gt;&lt;font style=&quot;font-size: 16px;&quot;&gt;S3 DAS 이관요청 RestAPI&lt;/font&gt;&lt;/h1&gt;&lt;p&gt;- 통합 고객 TDA_PERSON_VIEW&lt;br&gt;- 통합 고객 TCA_WEB_MEMBER_VIEW&lt;br&gt;- 통합 고객&amp;nbsp;&lt;span style=&quot;text-indent: -0.2in; background-color: initial; font-size: 9pt; text-indent: -0.2in; font-size: 9pt;&quot;&gt;&lt;/span&gt;&lt;span style=&quot;text-indent: -0.2in; background-color: initial; font-size: 9pt; font-family: &amp;quot;맑은 고딕&amp;quot;;&quot;&gt;TDA_ONEID_MSTR&lt;/span&gt;_VIEW&lt;br&gt;- 통합 고객&amp;nbsp;&lt;span style=&quot;font-family: &amp;quot;맑은 고딕&amp;quot;; text-indent: -19.2px;&quot;&gt;TDA_ONEID_PRVS_AGRMT_VIEW&lt;br&gt;&lt;/span&gt;- 통합 고객&amp;nbsp;&lt;span style=&quot;font-family: &amp;quot;맑은 고딕&amp;quot;; text-indent: -19.2px;&quot;&gt;TDA_ONEID_PRVS_ATTR_AGRMT_VIEW&lt;br&gt;&lt;/span&gt;- 통합 고객&amp;nbsp;&lt;span style=&quot;font-family: &amp;quot;맑은 고딕&amp;quot;; text-indent: -19.2px;&quot;&gt;TDA_FIVEO_PROD_PRVS_VIEW&lt;br&gt;&lt;/span&gt;- 통합 고객&amp;nbsp;&lt;span style=&quot;font-family: &amp;quot;맑은 고딕&amp;quot;; text-indent: -19.2px;&quot;&gt;TDA_FIVEO_PROD_PRVS_ATTR_VIEW&lt;br&gt;&lt;/span&gt;- 통합 고객&amp;nbsp;TDA_FIVEO_ENTR_SITE_DV_VIEW&lt;span style=&quot;background-color: initial;&quot;&gt;&lt;br&gt;&lt;/span&gt;&lt;span style=&quot;background-color: initial;&quot;&gt;- 홈 가입 TCA_ENTR_VIEW&lt;br&gt;&lt;/span&gt;&lt;span style=&quot;background-color: initial;&quot;&gt;- 홈 가입 TCA_SVC_BY_ENTR_VIEW&lt;br&gt;&lt;/span&gt;&lt;span style=&quot;background-color: initial;&quot;&gt;- 홈 가입 TDA_DEV_BY_ENTR_VIEW&lt;br&gt;&lt;/span&gt;&lt;span style=&quot;background-color: initial;&quot;&gt;- 기업 가입 TCA_ENTR_VIEW&lt;br&gt;&lt;/span&gt;&lt;span style=&quot;background-color: initial;&quot;&gt;- 기업&amp;nbsp;가입 TCA_SVC_BY_ENTR_VIEW&lt;br&gt;&lt;/span&gt;&lt;span style=&quot;background-color: initial;&quot;&gt;- 기업 가입 TDA_DEV_BY_ENTR_VIEW&lt;br&gt;&lt;/span&gt;&lt;span style=&quot;background-color: initial;&quot;&gt;- 원아이디 TDA_ENTR_VUEW&lt;br&gt;&lt;/span&gt;&lt;span style=&quot;background-color: initial;&quot;&gt;- 원아이디 TDA_SVC_BY_ENTR_NEW&lt;/span&gt;&lt;/p&gt;" style="text;html=1;strokeColor=none;fillColor=none;spacing=5;spacingTop=-20;whiteSpace=wrap;overflow=hidden;rounded=0;fontStyle=0" vertex="1" parent="SNBEBSxsxXZLALjFwHjv-16">
          <mxGeometry x="20" y="280" width="290" height="290" as="geometry" />
        </mxCell>
        <mxCell id="HiEisiIGn9IIFTJhIF5T-1" value="Redis/ DB" style="shape=cylinder3;whiteSpace=wrap;html=1;boundedLbl=1;backgroundOutline=1;size=15;" vertex="1" parent="1">
          <mxGeometry x="690" y="-2300" width="90" height="60" as="geometry" />
        </mxCell>
        <mxCell id="HiEisiIGn9IIFTJhIF5T-3" style="edgeStyle=orthogonalEdgeStyle;rounded=0;orthogonalLoop=1;jettySize=auto;html=1;entryX=0;entryY=0.5;entryDx=0;entryDy=0;entryPerimeter=0;" edge="1" parent="1" source="SNBEBSxsxXZLALjFwHjv-16" target="HiEisiIGn9IIFTJhIF5T-1">
          <mxGeometry relative="1" as="geometry">
            <Array as="points">
              <mxPoint x="590" y="-2270" />
            </Array>
          </mxGeometry>
        </mxCell>
      </root>
    </mxGraphModel>
  </diagram>
  <diagram id="gz2L9FP4b2ybBlcEZh4Z" name="UCUBE이관요청응답">
    <mxGraphModel dx="1141" dy="3108" grid="1" gridSize="10" guides="1" tooltips="1" connect="1" arrows="1" fold="1" page="1" pageScale="1" pageWidth="827" pageHeight="1169" math="0" shadow="0">
      <root>
        <mxCell id="0" />
        <mxCell id="1" parent="0" />
        <mxCell id="VKWds5tt9iFl1B8NK6sV-5" style="edgeStyle=orthogonalEdgeStyle;rounded=0;orthogonalLoop=1;jettySize=auto;html=1;entryX=1;entryY=0.5;entryDx=0;entryDy=0;" edge="1" parent="1" source="Mh3h_hL8xh3YTowa7XrW-1" target="OK5UYsICvY-d3s_jH--Y-1">
          <mxGeometry relative="1" as="geometry" />
        </mxCell>
        <mxCell id="Mh3h_hL8xh3YTowa7XrW-1" value="S3" style="swimlane;whiteSpace=wrap;html=1;" vertex="1" parent="1">
          <mxGeometry x="520" y="-2250" width="300" height="590" as="geometry">
            <mxRectangle x="520" y="-2250" width="60" height="30" as="alternateBounds" />
          </mxGeometry>
        </mxCell>
        <mxCell id="Mh3h_hL8xh3YTowa7XrW-2" value="&lt;h1&gt;&lt;font style=&quot;font-size: 16px;&quot;&gt;S3 DAS 이관요청 RestAPI&lt;/font&gt;&lt;/h1&gt;&lt;p&gt;- 통합 고객 TDA_PERSON_VIEW&lt;br&gt;- 통합 고객 TCA_WEB_MEMBER_VIEW&lt;br&gt;- 통합 고객&amp;nbsp;&lt;span style=&quot;text-indent: -0.2in; background-color: initial; font-size: 9pt; text-indent: -0.2in; font-size: 9pt;&quot;&gt;&lt;/span&gt;&lt;span style=&quot;text-indent: -0.2in; background-color: initial; font-size: 9pt; font-family: &amp;quot;맑은 고딕&amp;quot;;&quot;&gt;TDA_ONEID_MSTR&lt;/span&gt;_VIEW&lt;br&gt;- 통합 고객&amp;nbsp;&lt;span style=&quot;font-family: &amp;quot;맑은 고딕&amp;quot;; text-indent: -19.2px;&quot;&gt;TDA_ONEID_PRVS_AGRMT_VIEW&lt;br&gt;&lt;/span&gt;- 통합 고객&amp;nbsp;&lt;span style=&quot;font-family: &amp;quot;맑은 고딕&amp;quot;; text-indent: -19.2px;&quot;&gt;TDA_ONEID_PRVS_ATTR_AGRMT_VIEW&lt;br&gt;&lt;/span&gt;- 통합 고객&amp;nbsp;&lt;span style=&quot;font-family: &amp;quot;맑은 고딕&amp;quot;; text-indent: -19.2px;&quot;&gt;TDA_FIVEO_PROD_PRVS_VIEW&lt;br&gt;&lt;/span&gt;- 통합 고객&amp;nbsp;&lt;span style=&quot;font-family: &amp;quot;맑은 고딕&amp;quot;; text-indent: -19.2px;&quot;&gt;TDA_FIVEO_PROD_PRVS_ATTR_VIEW&lt;br&gt;&lt;/span&gt;- 통합 고객&amp;nbsp;TDA_FIVEO_ENTR_SITE_DV_VIEW&lt;span style=&quot;background-color: initial;&quot;&gt;&lt;br&gt;&lt;/span&gt;&lt;span style=&quot;background-color: initial;&quot;&gt;- 홈 가입 TCA_ENTR_VIEW&lt;br&gt;&lt;/span&gt;&lt;span style=&quot;background-color: initial;&quot;&gt;- 홈 가입 TCA_SVC_BY_ENTR_VIEW&lt;br&gt;&lt;/span&gt;&lt;span style=&quot;background-color: initial;&quot;&gt;- 홈 가입 TDA_DEV_BY_ENTR_VIEW&lt;br&gt;&lt;/span&gt;&lt;span style=&quot;background-color: initial;&quot;&gt;- 기업 가입 TCA_ENTR_VIEW&lt;br&gt;&lt;/span&gt;&lt;span style=&quot;background-color: initial;&quot;&gt;- 기업&amp;nbsp;가입 TCA_SVC_BY_ENTR_VIEW&lt;br&gt;&lt;/span&gt;&lt;span style=&quot;background-color: initial;&quot;&gt;- 기업 가입 TDA_DEV_BY_ENTR_VIEW&lt;br&gt;&lt;/span&gt;&lt;span style=&quot;background-color: initial;&quot;&gt;- 원아이디 TDA_ENTR_VUEW&lt;br&gt;&lt;/span&gt;&lt;span style=&quot;background-color: initial;&quot;&gt;- 원아이디 TDA_SVC_BY_ENTR_NEW&lt;/span&gt;&lt;/p&gt;" style="text;html=1;strokeColor=none;fillColor=none;spacing=5;spacingTop=-20;whiteSpace=wrap;overflow=hidden;rounded=0;fontStyle=0" vertex="1" parent="Mh3h_hL8xh3YTowa7XrW-1">
          <mxGeometry x="10" y="280" width="290" height="290" as="geometry" />
        </mxCell>
        <mxCell id="Mh3h_hL8xh3YTowa7XrW-3" value="&lt;h1&gt;&lt;font style=&quot;font-size: 16px;&quot;&gt;S3 CAS 이관요청 RestAPI&lt;/font&gt;&lt;/h1&gt;&lt;p&gt;- 통합 고객 TCA_PERSON_VIEW&lt;br&gt;- 통합 고객 TCA_WEB_MEMBER_VIEW&lt;br&gt;- 모바일 가입 TCA_CUST_MASTER_VIEW&lt;br&gt;- 모바일 가입 TCA_SUB_SVC_VIEW&lt;br&gt;- 모바일 가입 TCA_ONE_NUMBER_VIEW&lt;br&gt;- 모바일 가입 TCA_RIO_WATCH_LIST_VIEW&lt;br style=&quot;border-color: var(--border-color);&quot;&gt;- 홈 가입 TCA_CUST_MASTER_VIEW&lt;br style=&quot;border-color: var(--border-color);&quot;&gt;- 홈 가입 TCA_SUB_SVC_VIEW&lt;br style=&quot;border-color: var(--border-color);&quot;&gt;- 홈 가입 TCA_DV_DEV_BY_ENTR_VIEW&amp;nbsp;&lt;br&gt;- 기업 가입 TCA_CUST_MASTER_VIEW&lt;br style=&quot;border-color: var(--border-color);&quot;&gt;- 기업&amp;nbsp;가입 TCA_SUB_SVC_VIEW&lt;br style=&quot;border-color: var(--border-color);&quot;&gt;- 기업 가입 TCA_DV_DEV_BY_ENTR_VIEW&lt;br&gt;- 원아이디 TCA_CUST_MASTER_VIEW&lt;br&gt;- 원아이디 TCA_SUB_SVC_VUEW&amp;nbsp;&lt;/p&gt;" style="text;html=1;strokeColor=none;fillColor=none;spacing=5;spacingTop=-20;whiteSpace=wrap;overflow=hidden;rounded=0;" vertex="1" parent="Mh3h_hL8xh3YTowa7XrW-1">
          <mxGeometry x="10" y="20" width="270" height="260" as="geometry" />
        </mxCell>
        <mxCell id="OK5UYsICvY-d3s_jH--Y-1" value="대사 서버 UCUBE 이관 요청에 대한 응답" style="swimlane;whiteSpace=wrap;html=1;" vertex="1" parent="1">
          <mxGeometry x="170" y="-2250" width="310" height="590" as="geometry">
            <mxRectangle x="120" y="-2250" width="260" height="30" as="alternateBounds" />
          </mxGeometry>
        </mxCell>
        <mxCell id="OK5UYsICvY-d3s_jH--Y-2" value="&lt;h1&gt;&lt;font style=&quot;font-size: 16px;&quot;&gt;S3 CAS 이관요청 RestAPI&lt;/font&gt;&lt;/h1&gt;&lt;p&gt;- 통합 고객 TCA_PERSON_VIEW&lt;br&gt;- 통합 고객 TCA_WEB_MEMBER_VIEW&lt;br&gt;- 모바일 가입 TCA_CUST_MASTER_VIEW&lt;br&gt;- 모바일 가입 TCA_SUB_SVC_VIEW&lt;br&gt;- 모바일 가입 TCA_ONE_NUMBER_VIEW&lt;br&gt;- 모바일 가입 TCA_RIO_WATCH_LIST_VIEW&lt;br style=&quot;border-color: var(--border-color);&quot;&gt;- 홈 가입 TCA_CUST_MASTER_VIEW&lt;br style=&quot;border-color: var(--border-color);&quot;&gt;- 홈 가입 TCA_SUB_SVC_VIEW&lt;br style=&quot;border-color: var(--border-color);&quot;&gt;- 홈 가입 TCA_DV_DEV_BY_ENTR_VIEW&amp;nbsp;&lt;br&gt;- 기업 가입 TCA_CUST_MASTER_VIEW&lt;br style=&quot;border-color: var(--border-color);&quot;&gt;- 기업&amp;nbsp;가입 TCA_SUB_SVC_VIEW&lt;br style=&quot;border-color: var(--border-color);&quot;&gt;- 기업 가입 TCA_DV_DEV_BY_ENTR_VIEW&lt;br&gt;- 원아이디 TCA_CUST_MASTER_VIEW&lt;br&gt;- 원아이디 TCA_SUB_SVC_VUEW&amp;nbsp;&lt;/p&gt;" style="text;html=1;strokeColor=none;fillColor=none;spacing=5;spacingTop=-20;whiteSpace=wrap;overflow=hidden;rounded=0;" vertex="1" parent="OK5UYsICvY-d3s_jH--Y-1">
          <mxGeometry x="20" y="30" width="270" height="500" as="geometry" />
        </mxCell>
        <mxCell id="OK5UYsICvY-d3s_jH--Y-3" value="&lt;h1&gt;&lt;font style=&quot;font-size: 16px;&quot;&gt;S3 DAS 이관요청 RestAPI&lt;/font&gt;&lt;/h1&gt;&lt;p&gt;- 통합 고객 TDA_PERSON_VIEW&lt;br&gt;- 통합 고객 TCA_WEB_MEMBER_VIEW&lt;br&gt;- 통합 고객&amp;nbsp;&lt;span style=&quot;text-indent: -0.2in; background-color: initial; font-size: 9pt; text-indent: -0.2in; font-size: 9pt;&quot;&gt;&lt;/span&gt;&lt;span style=&quot;text-indent: -0.2in; background-color: initial; font-size: 9pt; font-family: &amp;quot;맑은 고딕&amp;quot;;&quot;&gt;TDA_ONEID_MSTR&lt;/span&gt;_VIEW&lt;br&gt;- 통합 고객&amp;nbsp;&lt;span style=&quot;font-family: &amp;quot;맑은 고딕&amp;quot;; text-indent: -19.2px;&quot;&gt;TDA_ONEID_PRVS_AGRMT_VIEW&lt;br&gt;&lt;/span&gt;- 통합 고객&amp;nbsp;&lt;span style=&quot;font-family: &amp;quot;맑은 고딕&amp;quot;; text-indent: -19.2px;&quot;&gt;TDA_ONEID_PRVS_ATTR_AGRMT_VIEW&lt;br&gt;&lt;/span&gt;- 통합 고객&amp;nbsp;&lt;span style=&quot;font-family: &amp;quot;맑은 고딕&amp;quot;; text-indent: -19.2px;&quot;&gt;TDA_FIVEO_PROD_PRVS_VIEW&lt;br&gt;&lt;/span&gt;- 통합 고객&amp;nbsp;&lt;span style=&quot;font-family: &amp;quot;맑은 고딕&amp;quot;; text-indent: -19.2px;&quot;&gt;TDA_FIVEO_PROD_PRVS_ATTR_VIEW&lt;br&gt;&lt;/span&gt;- 통합 고객&amp;nbsp;TDA_FIVEO_ENTR_SITE_DV_VIEW&lt;span style=&quot;background-color: initial;&quot;&gt;&lt;br&gt;&lt;/span&gt;&lt;span style=&quot;background-color: initial;&quot;&gt;- 홈 가입 TCA_ENTR_VIEW&lt;br&gt;&lt;/span&gt;&lt;span style=&quot;background-color: initial;&quot;&gt;- 홈 가입 TCA_SVC_BY_ENTR_VIEW&lt;br&gt;&lt;/span&gt;&lt;span style=&quot;background-color: initial;&quot;&gt;- 홈 가입 TDA_DEV_BY_ENTR_VIEW&lt;br&gt;&lt;/span&gt;&lt;span style=&quot;background-color: initial;&quot;&gt;- 기업 가입 TCA_ENTR_VIEW&lt;br&gt;&lt;/span&gt;&lt;span style=&quot;background-color: initial;&quot;&gt;- 기업&amp;nbsp;가입 TCA_SVC_BY_ENTR_VIEW&lt;br&gt;&lt;/span&gt;&lt;span style=&quot;background-color: initial;&quot;&gt;- 기업 가입 TDA_DEV_BY_ENTR_VIEW&lt;br&gt;&lt;/span&gt;&lt;span style=&quot;background-color: initial;&quot;&gt;- 원아이디 TDA_ENTR_VUEW&lt;br&gt;&lt;/span&gt;&lt;span style=&quot;background-color: initial;&quot;&gt;- 원아이디 TDA_SVC_BY_ENTR_NEW&lt;/span&gt;&lt;/p&gt;" style="text;html=1;strokeColor=none;fillColor=none;spacing=5;spacingTop=-20;whiteSpace=wrap;overflow=hidden;rounded=0;fontStyle=0" vertex="1" parent="OK5UYsICvY-d3s_jH--Y-1">
          <mxGeometry x="20" y="280" width="290" height="290" as="geometry" />
        </mxCell>
        <mxCell id="VKWds5tt9iFl1B8NK6sV-1" value="Redis/ DB" style="shape=cylinder3;whiteSpace=wrap;html=1;boundedLbl=1;backgroundOutline=1;size=15;" vertex="1" parent="1">
          <mxGeometry x="20" y="-2310" width="90" height="60" as="geometry" />
        </mxCell>
        <mxCell id="VKWds5tt9iFl1B8NK6sV-6" style="edgeStyle=orthogonalEdgeStyle;rounded=0;orthogonalLoop=1;jettySize=auto;html=1;entryX=1;entryY=0.5;entryDx=0;entryDy=0;entryPerimeter=0;exitX=0.097;exitY=0;exitDx=0;exitDy=0;exitPerimeter=0;" edge="1" parent="1" source="OK5UYsICvY-d3s_jH--Y-1" target="VKWds5tt9iFl1B8NK6sV-1">
          <mxGeometry relative="1" as="geometry" />
        </mxCell>
      </root>
    </mxGraphModel>
  </diagram>
</mxfile>
